:SAMPLES-PER-SECOND 30
:FULLY-SPECIFIED
:DEGREES
132
root  0.125826 37.6514 -15.7142 -11.4799 62.6945 -3.40178
RightUpLeg  -17.6734 -4.57433 -1.7892
RightLeg  -1.47776 -13.6187 5.34089
RightFoot  -0.774748 -0.285159 3.21473
RightToes  0.00048216 0.542163 -0.142577
Spine  14.9346 -3.03933 5.43896
Spine1  9.71495 -2.22088 -2.27789
HEad  -2.18464 10.0369 -10.1361
LeftShoulder1  8.67148 -13.1748 -45.3195
LeftArm  -12.9091 14.4159 -23.222
LeftForeArm  76.9303 -79.3268 -89.6812
LeftHand  -0.25398 0.0180481 5.50724
RightShoulder  4.1627 7.87327 30.6348
RightArm  -17.2142 -27.4529 28.4261
RightForeArm  62.827 73.7623 130.585
RightHand  1.62322 -14.9231 -20.0996
LeftUpLeg  30.5158 7.5178 2.27097
LeftLeg  12.3789 -2.22486 -2.61082
LeftFoot  -22.4168 0.340106 2.13607
LeftToes  1.06246e-005 4.65856e-005 -8.18501e-006
133
root  1.95653 37.3416 -14.7473 -14.9277 62.8622 -7.51544
RightUpLeg  -20.945 -5.18557 1.61456
RightLeg  7.56883 -10.5231 2.6353
RightFoot  4.66266 0.216562 -1.3119
RightToes  0.00048216 0.542163 -0.142577
Spine  14.8839 -3.44494 9.96743
Spine1  9.46298 -1.65403 -3.83397
HEad  -1.91981 9.50894 -10.6737
LeftShoulder1  8.7302 -13.2532 -45.4163
LeftArm  -12.7212 15.5957 -23.0719
LeftForeArm  73.6901 -79.2936 -86.8307
LeftHand  -0.25398 0.0180481 5.50724
RightShoulder  4.13021 7.75763 30.7229
RightArm  -15.8588 -27.0062 27.5434
RightForeArm  62.8165 73.7025 130.823
RightHand  1.62717 -14.6687 -20.6653
LeftUpLeg  32.7208 8.57399 5.8569
LeftLeg  14.2624 -4.92878 -2.15666
LeftFoot  -21.2119 0.00635009 -1.43078
LeftToes  1.06246e-005 4.65856e-005 -8.18501e-006
134
root  3.81905 37.0784 -13.8273 -17.3191 62.9944 -10.7282
RightUpLeg  -24.6439 -10.5688 6.11257
RightLeg  17.4523 -2.6537 -0.577782
RightFoot  8.64528 0.777412 -4.12203
RightToes  0.00048216 0.542163 -0.142577
Spine  14.71 -4.16743 13.8515
Spine1  9.06888 -1.34944 -5.46189
HEad  -2.28212 9.92131 -11.6844
LeftShoulder1  8.89946 -13.3837 -45.9576
LeftArm  -13.0803 17.4726 -22.7243
LeftForeArm  71.6451 -79.2568 -85.102
LeftHand  -0.25398 0.0180481 5.50724
RightShoulder  4.2137 7.89901 31.0024
RightArm  -14.1675 -25.8123 26.2821
RightForeArm  60.9955 74.1487 128.844
RightHand  1.59127 -14.4216 -20.7691
LeftUpLeg  32.1786 8.22708 7.73091
LeftLeg  19.6769 -5.59098 -1.80377
LeftFoot  -17.1381 -0.190118 -6.1327
LeftToes  1.06246e-005 4.65856e-005 -8.18501e-006
135
root  5.50392 36.932 -12.9369 -19.2457 64.1595 -13.2157
RightUpLeg  -26.4868 -9.75119 6.43106
RightLeg  25.3884 -3.98588 -2.40184
RightFoot  7.86279 0.991885 -5.56421
RightToes  0.00048216 0.542163 -0.142577
Spine  15.3475 -5.10946 15.3463
Spine1  8.6006 -1.9654 -5.10142
HEad  -3.00753 10.9906 -12.721
LeftShoulder1  9.11619 -13.5034 -46.7686
LeftArm  -13.9151 19.3129 -22.2287
LeftForeArm  70.0642 -79.2205 -83.8158
LeftHand  -0.25398 0.0180481 5.50724
RightShoulder  4.38732 8.25805 31.355
RightArm  -12.4651 -23.6374 25.102
RightForeArm  56.1784 75.0548 124.137
RightHand  1.54437 -14.0107 -21.1139
LeftUpLeg  27.3155 5.39614 7.5761
LeftLeg  30.6441 -2.51272 -1.19389
LeftFoot  -6.7331 0.363827 -8.61542
LeftToes  1.06246e-005 4.65856e-005 -8.18501e-006
136
root  6.95508 36.854 -12.0816 -22.9696 66.0081 -17.457
RightUpLeg  -26.693 -9.29648 6.97686
RightLeg  31.1579 -6.32143 -4.35138
RightFoot  3.57428 0.905355 -6.72033
RightToes  0.00048216 0.542163 -0.142577
Spine  16.5051 -6.07473 16.4473
Spine1  8.51737 -2.73716 -3.51614
HEad  -3.43512 11.3767 -13.0051
LeftShoulder1  9.29688 -13.6305 -47.3551
LeftArm  -14.2957 19.9518 -21.7375
LeftForeArm  66.9689 -79.1371 -81.0003
LeftHand  -0.25398 0.0180481 5.50724
RightShoulder  4.51014 8.50742 31.6057
RightArm  -11.2702 -21.6636 24.3247
RightForeArm  50.1288 75.842 118.896
RightHand  1.56298 -13.8225 -21.7896
LeftUpLeg  19.1236 2.55262 8.25163
LeftLeg  44.5358 0.372598 0.802112
LeftFoot  7.96643 1.33539 -8.15107
LeftToes  1.06246e-005 4.65856e-005 -8.18501e-006
137
root  8.30407 36.8272 -11.2598 -28.0914 67.611 -23.1217
RightUpLeg  -25.8059 -9.33135 8.31252
RightLeg  34.889 -7.84417 -6.09687
RightFoot  -1.11781 0.618176 -6.93493
RightToes  0.00048216 0.542163 -0.142577
Spine  17.2111 -6.64036 18.5672
Spine1  8.98685 -2.69802 -2.75855
HEad  -3.10415 10.1714 -12.1791
LeftShoulder1  9.41175 -13.7905 -47.4995
LeftArm  -13.7981 18.9932 -21.4263
LeftForeArm  61.6968 -78.9317 -75.8321
LeftHand  -0.25398 0.0180481 5.50724
RightShoulder  4.52282 8.51158 31.6983
RightArm  -10.8486 -20.9951 23.9172
RightForeArm  45.7786 76.2409 115.511
RightHand  1.62093 -13.9521 -22.214
LeftUpLeg  9.8054 0.439158 9.74065
LeftLeg  57.5617 1.36716 2.78421
LeftFoot  16.5819 1.76834 -7.51379
LeftToes  1.06246e-005 4.65856e-005 -8.18501e-006
138
root  9.7883 37.1324 -10.3771 -30.7417 69.1006 -25.7572
RightUpLeg  -22.9739 -9.94531 8.3552
RightLeg  36.0068 -8.6062 -6.93207
RightFoot  -4.58555 0.313709 -5.80414
RightToes  0.00048216 0.542163 -0.142577
Spine  17.3289 -6.42771 19.5268
Spine1  9.39 -2.11347 -3.08307
HEad  -2.0025 7.97559 -10.7827
LeftShoulder1  9.47554 -13.9304 -47.4366
LeftArm  -13.1556 17.4208 -21.501
LeftForeArm  56.01 -78.5922 -69.9136
LeftHand  -0.25398 0.0180481 5.50724
RightShoulder  4.50681 8.47143 31.6907
RightArm  -10.8396 -21.2905 23.7613
RightForeArm  42.8098 76.5211 112.774
RightHand  1.57945 -13.7959 -22.0656
LeftUpLeg  1.31496 0.0644924 10.1848
LeftLeg  66.8667 0.988946 3.22529
LeftFoot  15.8195 1.48464 -6.51261
LeftToes  1.06246e-005 4.65856e-005 -8.18501e-006
139
root  11.3373 37.6472 -9.46417 -30.3317 70.9959 -24.5793
RightUpLeg  -18.6337 -11.5048 6.7587
RightLeg  35.4762 -8.79014 -6.94589
RightFoot  -7.32652 0.106969 -4.50577
RightToes  0.00048216 0.542163 -0.142577
Spine  17.9116 -5.92885 18.2608
Spine1  9.26382 -1.73284 -3.13239
HEad  -0.369334 5.99556 -9.64042
LeftShoulder1  9.48912 -13.9682 -47.4012
LeftArm  -13.1319 16.5707 -21.8918
LeftForeArm  52.353 -78.2833 -65.786
LeftHand  -0.25398 0.0180481 5.50724
RightShoulder  4.5265 8.52378 31.6905
RightArm  -10.6763 -21.5021 23.7854
RightForeArm  38.9597 76.9025 108.377
RightHand  1.42814 -13.1838 -21.5981
LeftUpLeg  -5.78438 0.835248 8.91877
LeftLeg  71.3908 0.456202 2.45878
LeftFoot  11.0528 0.95462 -5.17828
LeftToes  1.06246e-005 4.65856e-005 -8.18501e-006
